<?xml version="1.0" encoding="UTF-8"?>
<svg width="150px" height="129px" viewBox="0 0 150 129" version="1.1" xmlns="http://www.w3.org/2000/svg" xmlns:xlink="http://www.w3.org/1999/xlink">
    <title>Group 2</title>
    <g id="Button" stroke="none" stroke-width="1" fill="none" fill-rule="evenodd">
        <g id="Button-square-with-icon" transform="translate(-35.000000, -24.000000)">
            <g id="Group-2" transform="translate(35.000000, 24.000000)">
                <g id="Group">
                    <path d="M5,0 L41,0 C43.7614237,-5.07265313e-16 46,2.23857625 46,5 L46,34 C46,36.7614237 43.7614237,39 41,39 L30.9173475,39 L5,39 C2.23857625,39 -1.43817996e-15,36.7614237 0,34 L0,5 C-3.38176876e-16,2.23857625 2.23857625,5.07265313e-16 5,0 Z" id="Rectangle" fill="#757575"></path>
                    <rect id="Rectangle" stroke="#979797" fill="#E0E0E0" x="9" y="32" width="28" height="2"></rect>
                    <circle id="Oval" fill="#E0E0E0" cx="23" cy="16" r="10"></circle>
                    <polygon id="Path" fill="#BDBDBD" fill-rule="nonzero" points="20.158546 14.041012 21.7362722 15.2079168 25.841454 12 28.5000318 14.2096374 29 14.6251785 29 19 17 19 17 16.3748215"></polygon>
                    <path d="M18,12 C17.4479804,12 17,12.4479804 17,13 C17,13.5520196 17.4479804,14 18,14 C18.5520196,14 19,13.5520196 19,13 C19,12.4479804 18.5520196,12 18,12 Z" id="Path" fill="#BDBDBD" fill-rule="nonzero"></path>
                </g>
                <g id="Group" transform="translate(52.000000, 0.000000)">
                    <path d="M5,0 L41,0 C43.7614237,-5.07265313e-16 46,2.23857625 46,5 L46,34 C46,36.7614237 43.7614237,39 41,39 L30.9173475,39 L5,39 C2.23857625,39 -1.43817996e-15,36.7614237 0,34 L0,5 C-3.38176876e-16,2.23857625 2.23857625,5.07265313e-16 5,0 Z" id="Rectangle" fill="#757575"></path>
                    <rect id="Rectangle" stroke="#979797" fill="#E0E0E0" x="9" y="32" width="28" height="2"></rect>
                    <circle id="Oval" fill="#E0E0E0" cx="23" cy="16" r="10"></circle>
                    <polygon id="Path" fill="#BDBDBD" fill-rule="nonzero" points="20.158546 14.041012 21.7362722 15.2079168 25.841454 12 28.5000318 14.2096374 29 14.6251785 29 19 17 19 17 16.3748215"></polygon>
                    <path d="M18,12 C17.4479804,12 17,12.4479804 17,13 C17,13.5520196 17.4479804,14 18,14 C18.5520196,14 19,13.5520196 19,13 C19,12.4479804 18.5520196,12 18,12 Z" id="Path" fill="#BDBDBD" fill-rule="nonzero"></path>
                </g>
                <g id="Group" transform="translate(104.000000, 0.000000)">
                    <path d="M5,0 L41,0 C43.7614237,-5.07265313e-16 46,2.23857625 46,5 L46,34 C46,36.7614237 43.7614237,39 41,39 L30.9173475,39 L5,39 C2.23857625,39 -1.43817996e-15,36.7614237 0,34 L0,5 C-3.38176876e-16,2.23857625 2.23857625,5.07265313e-16 5,0 Z" id="Rectangle" fill="#757575"></path>
                    <rect id="Rectangle" stroke="#979797" fill="#E0E0E0" x="9" y="32" width="28" height="2"></rect>
                    <circle id="Oval" fill="#E0E0E0" cx="23" cy="16" r="10"></circle>
                    <polygon id="Path" fill="#BDBDBD" fill-rule="nonzero" points="20.158546 14.041012 21.7362722 15.2079168 25.841454 12 28.5000318 14.2096374 29 14.6251785 29 19 17 19 17 16.3748215"></polygon>
                    <path d="M18,12 C17.4479804,12 17,12.4479804 17,13 C17,13.5520196 17.4479804,14 18,14 C18.5520196,14 19,13.5520196 19,13 C19,12.4479804 18.5520196,12 18,12 Z" id="Path" fill="#BDBDBD" fill-rule="nonzero"></path>
                </g>
                <g id="Group" transform="translate(0.000000, 45.000000)">
                    <path d="M5,0 L41,0 C43.7614237,-5.07265313e-16 46,2.23857625 46,5 L46,34 C46,36.7614237 43.7614237,39 41,39 L30.9173475,39 L5,39 C2.23857625,39 -1.43817996e-15,36.7614237 0,34 L0,5 C-3.38176876e-16,2.23857625 2.23857625,5.07265313e-16 5,0 Z" id="Rectangle" fill="#757575"></path>
                    <rect id="Rectangle" stroke="#979797" fill="#E0E0E0" x="9" y="32" width="28" height="2"></rect>
                    <circle id="Oval" fill="#E0E0E0" cx="23" cy="16" r="10"></circle>
                    <polygon id="Path" fill="#BDBDBD" fill-rule="nonzero" points="20.158546 14.041012 21.7362722 15.2079168 25.841454 12 28.5000318 14.2096374 29 14.6251785 29 19 17 19 17 16.3748215"></polygon>
                    <path d="M18,12 C17.4479804,12 17,12.4479804 17,13 C17,13.5520196 17.4479804,14 18,14 C18.5520196,14 19,13.5520196 19,13 C19,12.4479804 18.5520196,12 18,12 Z" id="Path" fill="#BDBDBD" fill-rule="nonzero"></path>
                </g>
                <g id="Group" transform="translate(52.000000, 45.000000)">
                    <path d="M5,0 L41,0 C43.7614237,-5.07265313e-16 46,2.23857625 46,5 L46,34 C46,36.7614237 43.7614237,39 41,39 L30.9173475,39 L5,39 C2.23857625,39 -1.43817996e-15,36.7614237 0,34 L0,5 C-3.38176876e-16,2.23857625 2.23857625,5.07265313e-16 5,0 Z" id="Rectangle" fill="#757575"></path>
                    <rect id="Rectangle" stroke="#979797" fill="#E0E0E0" x="9" y="32" width="28" height="2"></rect>
                    <circle id="Oval" fill="#E0E0E0" cx="23" cy="16" r="10"></circle>
                    <polygon id="Path" fill="#BDBDBD" fill-rule="nonzero" points="20.158546 14.041012 21.7362722 15.2079168 25.841454 12 28.5000318 14.2096374 29 14.6251785 29 19 17 19 17 16.3748215"></polygon>
                    <path d="M18,12 C17.4479804,12 17,12.4479804 17,13 C17,13.5520196 17.4479804,14 18,14 C18.5520196,14 19,13.5520196 19,13 C19,12.4479804 18.5520196,12 18,12 Z" id="Path" fill="#BDBDBD" fill-rule="nonzero"></path>
                </g>
                <g id="Group" transform="translate(104.000000, 45.000000)">
                    <path d="M5,0 L41,0 C43.7614237,-5.07265313e-16 46,2.23857625 46,5 L46,34 C46,36.7614237 43.7614237,39 41,39 L30.9173475,39 L5,39 C2.23857625,39 -1.43817996e-15,36.7614237 0,34 L0,5 C-3.38176876e-16,2.23857625 2.23857625,5.07265313e-16 5,0 Z" id="Rectangle" fill="#757575"></path>
                    <rect id="Rectangle" stroke="#979797" fill="#E0E0E0" x="9" y="32" width="28" height="2"></rect>
                    <circle id="Oval" fill="#E0E0E0" cx="23" cy="16" r="10"></circle>
                    <polygon id="Path" fill="#BDBDBD" fill-rule="nonzero" points="20.158546 14.041012 21.7362722 15.2079168 25.841454 12 28.5000318 14.2096374 29 14.6251785 29 19 17 19 17 16.3748215"></polygon>
                    <path d="M18,12 C17.4479804,12 17,12.4479804 17,13 C17,13.5520196 17.4479804,14 18,14 C18.5520196,14 19,13.5520196 19,13 C19,12.4479804 18.5520196,12 18,12 Z" id="Path" fill="#BDBDBD" fill-rule="nonzero"></path>
                </g>
                <g id="Group" transform="translate(0.000000, 90.000000)">
                    <path d="M5,0 L41,0 C43.7614237,-5.07265313e-16 46,2.23857625 46,5 L46,34 C46,36.7614237 43.7614237,39 41,39 L30.9173475,39 L5,39 C2.23857625,39 -1.43817996e-15,36.7614237 0,34 L0,5 C-3.38176876e-16,2.23857625 2.23857625,5.07265313e-16 5,0 Z" id="Rectangle" fill="#757575"></path>
                    <rect id="Rectangle" stroke="#979797" fill="#E0E0E0" x="9" y="32" width="28" height="2"></rect>
                    <circle id="Oval" fill="#E0E0E0" cx="23" cy="16" r="10"></circle>
                    <polygon id="Path" fill="#BDBDBD" fill-rule="nonzero" points="20.158546 14.041012 21.7362722 15.2079168 25.841454 12 28.5000318 14.2096374 29 14.6251785 29 19 17 19 17 16.3748215"></polygon>
                    <path d="M18,12 C17.4479804,12 17,12.4479804 17,13 C17,13.5520196 17.4479804,14 18,14 C18.5520196,14 19,13.5520196 19,13 C19,12.4479804 18.5520196,12 18,12 Z" id="Path" fill="#BDBDBD" fill-rule="nonzero"></path>
                </g>
                <g id="Group" transform="translate(52.000000, 90.000000)">
                    <path d="M5,0 L41,0 C43.7614237,-5.07265313e-16 46,2.23857625 46,5 L46,34 C46,36.7614237 43.7614237,39 41,39 L30.9173475,39 L5,39 C2.23857625,39 -1.43817996e-15,36.7614237 0,34 L0,5 C-3.38176876e-16,2.23857625 2.23857625,5.07265313e-16 5,0 Z" id="Rectangle" fill="#757575"></path>
                    <rect id="Rectangle" stroke="#979797" fill="#E0E0E0" x="9" y="32" width="28" height="2"></rect>
                    <circle id="Oval" fill="#E0E0E0" cx="23" cy="16" r="10"></circle>
                    <polygon id="Path" fill="#BDBDBD" fill-rule="nonzero" points="20.158546 14.041012 21.7362722 15.2079168 25.841454 12 28.5000318 14.2096374 29 14.6251785 29 19 17 19 17 16.3748215"></polygon>
                    <path d="M18,12 C17.4479804,12 17,12.4479804 17,13 C17,13.5520196 17.4479804,14 18,14 C18.5520196,14 19,13.5520196 19,13 C19,12.4479804 18.5520196,12 18,12 Z" id="Path" fill="#BDBDBD" fill-rule="nonzero"></path>
                </g>
                <g id="Group" transform="translate(104.000000, 90.000000)">
                    <path d="M5,0 L41,0 C43.7614237,-5.07265313e-16 46,2.23857625 46,5 L46,34 C46,36.7614237 43.7614237,39 41,39 L30.9173475,39 L5,39 C2.23857625,39 -1.43817996e-15,36.7614237 0,34 L0,5 C-3.38176876e-16,2.23857625 2.23857625,5.07265313e-16 5,0 Z" id="Rectangle" fill="#757575"></path>
                    <rect id="Rectangle" stroke="#979797" fill="#E0E0E0" x="9" y="32" width="28" height="2"></rect>
                    <circle id="Oval" fill="#E0E0E0" cx="23" cy="16" r="10"></circle>
                    <polygon id="Path" fill="#BDBDBD" fill-rule="nonzero" points="20.158546 14.041012 21.7362722 15.2079168 25.841454 12 28.5000318 14.2096374 29 14.6251785 29 19 17 19 17 16.3748215"></polygon>
                    <path d="M18,12 C17.4479804,12 17,12.4479804 17,13 C17,13.5520196 17.4479804,14 18,14 C18.5520196,14 19,13.5520196 19,13 C19,12.4479804 18.5520196,12 18,12 Z" id="Path" fill="#BDBDBD" fill-rule="nonzero"></path>
                </g>
            </g>
        </g>
    </g>
</svg>